<svg id="visual" viewBox="0 0 900 675" width="900" height="675" xmlns="http://www.w3.org/2000/svg" xmlns:xlink="http://www.w3.org/1999/xlink" version="1.1"><rect x="0" y="0" width="900" height="675" fill="#d4e1e8"></rect><path d="M0 502L15 517.5C30 533 60 564 90 571.2C120 578.3 150 561.7 180 561.5C210 561.3 240 577.7 270 574.8C300 572 330 550 360 537.2C390 524.3 420 520.7 450 513.7C480 506.7 510 496.3 540 490.2C570 484 600 482 630 492.5C660 503 690 526 720 541.7C750 557.3 780 565.7 810 560.8C840 556 870 538 885 529L900 520L900 676L885 676C870 676 840 676 810 676C780 676 750 676 720 676C690 676 660 676 630 676C600 676 570 676 540 676C510 676 480 676 450 676C420 676 390 676 360 676C330 676 300 676 270 676C240 676 210 676 180 676C150 676 120 676 90 676C60 676 30 676 15 676L0 676Z" fill="#A8A89E" stroke-linecap="round" stroke-linejoin="miter"></path></svg>