<svg id="visual" viewBox="0 0 900 675" width="900" height="675" xmlns="http://www.w3.org/2000/svg" xmlns:xlink="http://www.w3.org/1999/xlink" version="1.1"><rect x="0" y="0" width="900" height="675" fill="#001220"></rect><path d="M0 456L21.5 448.7C43 441.3 86 426.7 128.8 428.8C171.7 431 214.3 450 257.2 452.8C300 455.7 343 442.3 385.8 435.3C428.7 428.3 471.3 427.7 514.2 424.8C557 422 600 417 642.8 428.5C685.7 440 728.3 468 771.2 467.3C814 466.7 857 437.3 878.5 422.7L900 408L900 676L878.5 676C857 676 814 676 771.2 676C728.3 676 685.7 676 642.8 676C600 676 557 676 514.2 676C471.3 676 428.7 676 385.8 676C343 676 300 676 257.2 676C214.3 676 171.7 676 128.8 676C86 676 43 676 21.5 676L0 676Z" fill="#fa7268"></path><path d="M0 487L21.5 494.7C43 502.3 86 517.7 128.8 514C171.7 510.3 214.3 487.7 257.2 484.3C300 481 343 497 385.8 495.8C428.7 494.7 471.3 476.3 514.2 468.8C557 461.3 600 464.7 642.8 477.3C685.7 490 728.3 512 771.2 518.3C814 524.7 857 515.3 878.5 510.7L900 506L900 676L878.5 676C857 676 814 676 771.2 676C728.3 676 685.7 676 642.8 676C600 676 557 676 514.2 676C471.3 676 428.7 676 385.8 676C343 676 300 676 257.2 676C214.3 676 171.7 676 128.8 676C86 676 43 676 21.5 676L0 676Z" fill="#ef5f67"></path><path d="M0 561L21.5 550.7C43 540.3 86 519.7 128.8 509.3C171.7 499 214.3 499 257.2 506.7C300 514.3 343 529.7 385.8 535C428.7 540.3 471.3 535.7 514.2 528.2C557 520.7 600 510.3 642.8 507.2C685.7 504 728.3 508 771.2 511C814 514 857 516 878.5 517L900 518L900 676L878.5 676C857 676 814 676 771.2 676C728.3 676 685.7 676 642.8 676C600 676 557 676 514.2 676C471.3 676 428.7 676 385.8 676C343 676 300 676 257.2 676C214.3 676 171.7 676 128.8 676C86 676 43 676 21.5 676L0 676Z" fill="#e34c67"></path><path d="M0 579L21.5 575.3C43 571.7 86 564.3 128.8 564.7C171.7 565 214.3 573 257.2 570.5C300 568 343 555 385.8 548.7C428.7 542.3 471.3 542.7 514.2 544C557 545.3 600 547.7 642.8 552.3C685.7 557 728.3 564 771.2 568.7C814 573.3 857 575.7 878.5 576.8L900 578L900 676L878.5 676C857 676 814 676 771.2 676C728.3 676 685.7 676 642.8 676C600 676 557 676 514.2 676C471.3 676 428.7 676 385.8 676C343 676 300 676 257.2 676C214.3 676 171.7 676 128.8 676C86 676 43 676 21.5 676L0 676Z" fill="#d53867"></path><path d="M0 611L21.5 608.3C43 605.7 86 600.3 128.8 598.3C171.7 596.3 214.3 597.7 257.2 599.5C300 601.3 343 603.7 385.8 602.8C428.7 602 471.3 598 514.2 602.5C557 607 600 620 642.8 623.8C685.7 627.7 728.3 622.3 771.2 616.3C814 610.3 857 603.7 878.5 600.3L900 597L900 676L878.5 676C857 676 814 676 771.2 676C728.3 676 685.7 676 642.8 676C600 676 557 676 514.2 676C471.3 676 428.7 676 385.8 676C343 676 300 676 257.2 676C214.3 676 171.7 676 128.8 676C86 676 43 676 21.5 676L0 676Z" fill="#c62368"></path></svg>